<?xml version="1.0" encoding="utf-8"?>
<!-- Generator: Adobe Illustrator 25.2.1, SVG Export Plug-In . SVG Version: 6.00 Build 0)  -->
<svg version="1.1" id="Layer_1" xmlns="http://www.w3.org/2000/svg" xmlns:xlink="http://www.w3.org/1999/xlink" x="0px" y="0px"
	 viewBox="0 0 182 87" style="enable-background:new 0 0 182 87;" xml:space="preserve">
<style type="text/css">
	.st0{fill:#F16623;}
	.st1{fill:#F89420;}
	.st2{fill:#FDB816;}
	.st3{fill:#FFEB8C;}
</style>
<g>
	<path class="st0" d="M1.97,72.1c0.32,0.35,0.69,0.69,1.13,0.99c0.43,0.31,0.93,0.57,1.49,0.77c0.56,0.21,1.15,0.31,1.78,0.31
		c0.57,0,1.12-0.09,1.64-0.27c0.53-0.18,0.99-0.43,1.4-0.75s0.73-0.74,0.97-1.24c0.24-0.5,0.36-1.08,0.36-1.72
		c0-0.91-0.26-1.61-0.79-2.1c-0.53-0.49-1.18-0.88-1.96-1.19s-1.64-0.58-2.57-0.82c-0.93-0.24-1.79-0.57-2.57-0.99
		c-0.78-0.43-1.43-0.99-1.96-1.7c-0.53-0.71-0.79-1.68-0.79-2.92c0-0.97,0.16-1.86,0.5-2.67c0.33-0.81,0.81-1.51,1.44-2.1
		c0.63-0.59,1.41-1.05,2.34-1.39c0.93-0.34,2-0.51,3.2-0.51c1.11,0,2.05,0.15,2.81,0.44c0.77,0.29,1.49,0.56,2.18,0.8
		c-0.24,0.44-0.47,0.99-0.68,1.64c-0.21,0.65-0.35,1.15-0.41,1.5h-0.54c-0.24-0.71-0.71-1.34-1.4-1.9
		c-0.69-0.56-1.55-0.84-2.57-0.84c-0.45,0-0.9,0.07-1.35,0.22c-0.45,0.15-0.86,0.37-1.22,0.66c-0.36,0.29-0.66,0.68-0.9,1.15
		c-0.24,0.47-0.36,1.03-0.36,1.68c0,0.94,0.26,1.67,0.79,2.19c0.52,0.52,1.18,0.92,1.96,1.22c0.78,0.29,1.64,0.55,2.57,0.77
		c0.93,0.22,1.79,0.53,2.57,0.93c0.78,0.4,1.43,0.95,1.96,1.66c0.52,0.71,0.79,1.68,0.79,2.92c0,0.85-0.19,1.69-0.56,2.52
		c-0.38,0.83-0.92,1.57-1.62,2.23c-0.71,0.66-1.55,1.18-2.54,1.55c-0.99,0.37-2.12,0.55-3.38,0.55c-1.38,0-2.54-0.13-3.47-0.4
		c-0.93-0.27-1.71-0.57-2.34-0.93c0.18-0.38,0.37-0.91,0.56-1.57c0.19-0.66,0.29-1.22,0.29-1.66h0.54
		C1.42,71.42,1.65,71.75,1.97,72.1z"/>
	<path class="st0" d="M17.21,68.56c0-1.56,0.02-2.9,0.07-4c0.05-1.11,0.07-2.2,0.07-3.29c0-1.03-0.01-2.15-0.02-3.36
		c-0.02-1.21-0.04-2.43-0.07-3.67c0.75,0.15,1.38,0.22,1.89,0.22c0.48,0,1.1-0.07,1.85-0.22c-0.15,1.77-0.26,3.71-0.34,5.81
		c-0.07,2.11-0.11,4.27-0.11,6.48c0,1.53,0.13,2.7,0.41,3.51c0.27,0.81,0.6,1.42,0.99,1.83c0.42,0.47,0.95,0.86,1.6,1.17
		c0.64,0.31,1.4,0.46,2.27,0.46c1.26,0,2.31-0.27,3.15-0.82c0.84-0.55,1.46-1.22,1.85-2.01c0.21-0.5,0.37-0.93,0.5-1.28
		c0.12-0.35,0.22-0.82,0.29-1.41c0.07-0.59,0.12-1.39,0.14-2.39c0.01-1,0.02-2.37,0.02-4.11v-3.71c0-0.65-0.01-1.27-0.02-1.86
		c-0.02-0.59-0.04-1.15-0.07-1.68c0.33,0.06,0.65,0.11,0.95,0.15c0.3,0.04,0.61,0.07,0.95,0.07c0.33,0,0.65-0.02,0.95-0.07
		c0.3-0.04,0.6-0.1,0.9-0.15c-0.15,2.3-0.24,4.52-0.27,6.65c-0.03,2.14-0.05,4.4-0.05,6.79c0,1.33,0.01,2.62,0.05,3.89
		c0.03,1.27,0.07,2.49,0.14,3.67c-0.6-0.06-1.19-0.09-1.76-0.09c-0.57,0-1.16,0.03-1.76,0.09c0.03-0.27,0.05-0.55,0.07-0.84
		c0.01-0.29,0.02-0.6,0.02-0.93v-1.9h-0.09c-0.78,1.41-1.79,2.45-3.02,3.12c-1.23,0.66-2.57,0.99-4.01,0.99
		c-2.34,0-4.18-0.61-5.52-1.83C17.88,72.62,17.21,70.86,17.21,68.56z"/>
	<path class="st0" d="M53.71,57.8c-0.87-1.13-2.07-1.7-3.6-1.7c-2.1,0-3.64,0.63-4.62,1.9c-0.98,1.27-1.46,3.05-1.46,5.35v3.76
		c0,1.33,0.02,2.72,0.07,4.18c0.04,1.46,0.14,2.78,0.29,3.96c-0.69-0.06-1.37-0.09-2.03-0.09c-0.66,0-1.34,0.03-2.03,0.09
		c0.15-1.18,0.25-2.5,0.29-3.96c0.04-1.46,0.07-2.85,0.07-4.18v-4.6c0-1.33-0.02-2.72-0.07-4.18c-0.05-1.46-0.14-2.82-0.29-4.09
		c0.84,0.15,1.52,0.22,2.03,0.22c0.24,0,0.5-0.02,0.79-0.07c0.28-0.04,0.62-0.1,1.01-0.15c-0.09,1.18-0.13,2.36-0.13,3.54h0.09
		c0.84-1.27,1.85-2.25,3.02-2.94c1.17-0.69,2.57-1.04,4.19-1.04c0.84,0,1.69,0.12,2.54,0.35c0.86,0.24,1.63,0.64,2.32,1.22
		c0.69,0.57,1.25,1.36,1.69,2.34c0.43,0.99,0.65,2.25,0.65,3.78c0,1.27-0.03,2.57-0.09,3.91c-0.06,1.34-0.09,2.76-0.09,4.27v2.87
		c0,0.47,0.01,0.94,0.02,1.39c0.01,0.46,0.04,0.89,0.07,1.3c-0.6-0.06-1.23-0.09-1.89-0.09c-0.63,0-1.25,0.03-1.85,0.09
		c0.06-1.53,0.13-3.11,0.2-4.73c0.07-1.62,0.11-3.29,0.11-5v-2.7C55.01,60.61,54.58,58.93,53.71,57.8z"/>
	<path class="st0" d="M64.1,51.37c-0.02-1.18-0.04-2.34-0.07-3.49c-0.03-1.15-0.07-2.25-0.11-3.29c-0.05-1.05-0.1-1.94-0.16-2.67
		c0.84,0.15,1.52,0.22,2.03,0.22c0.51,0,1.19-0.07,2.03-0.22c-0.06,0.74-0.11,1.63-0.16,2.67c-0.04,1.05-0.08,2.14-0.11,3.29
		c-0.03,1.15-0.05,2.31-0.07,3.49c-0.02,1.18-0.02,2.27-0.02,3.27v8c0,1,0.01,2.09,0.02,3.27c0.01,1.18,0.04,2.34,0.07,3.49
		c0.03,1.15,0.07,2.24,0.11,3.27c0.05,1.03,0.1,1.89,0.16,2.56c-0.69-0.06-1.37-0.09-2.03-0.09c-0.66,0-1.34,0.03-2.03,0.09
		c0.06-0.68,0.11-1.53,0.16-2.56c0.05-1.03,0.08-2.12,0.11-3.27c0.03-1.15,0.05-2.31,0.07-3.49c0.01-1.18,0.02-2.27,0.02-3.27v-8
		C64.12,53.64,64.11,52.55,64.1,51.37z"/>
	<path class="st0" d="M73.81,62.51c0-1.33-0.02-2.72-0.07-4.18c-0.05-1.46-0.14-2.82-0.29-4.09c0.84,0.15,1.52,0.22,2.03,0.22
		c0.51,0,1.19-0.07,2.03-0.22c-0.15,1.27-0.25,2.63-0.29,4.09c-0.05,1.46-0.07,2.85-0.07,4.18v4.6c0,1.33,0.02,2.72,0.07,4.18
		c0.05,1.46,0.14,2.78,0.29,3.96c-0.69-0.06-1.37-0.09-2.03-0.09c-0.66,0-1.34,0.03-2.03,0.09c0.15-1.18,0.25-2.5,0.29-3.96
		c0.05-1.46,0.07-2.85,0.07-4.18V62.51z"/>
	<path class="st0" d="M81.76,61c0-1.24,0.22-2.31,0.68-3.21c0.45-0.9,1.07-1.64,1.87-2.23c0.8-0.59,1.71-1.03,2.75-1.33
		c1.04-0.29,2.14-0.44,3.31-0.44c0.57,0,1.12,0.01,1.64,0.04c0.53,0.03,1.19,0.07,2,0.13c0.69,0.06,1.31,0.1,1.85,0.13
		c0.54,0.03,0.98,0.04,1.31,0.04c1.68,0,2.9-0.07,3.65-0.22c-0.03,0.15-0.05,0.3-0.07,0.46c-0.02,0.16-0.02,0.32-0.02,0.46
		c0,0.15,0.01,0.3,0.02,0.46c0.02,0.16,0.04,0.32,0.07,0.46c-0.87-0.06-1.72-0.13-2.54-0.2c-0.83-0.07-1.64-0.13-2.45-0.15
		l-0.09,0.09c0.93,0.5,1.68,1.27,2.25,2.32c0.57,1.05,0.86,2.13,0.86,3.25c0,2.21-0.76,3.94-2.27,5.19
		c-1.52,1.25-3.55,1.88-6.1,1.88c-0.42,0-0.83-0.01-1.24-0.04c-0.41-0.03-0.82-0.04-1.24-0.04c-0.54,0-1.04,0.19-1.51,0.57
		c-0.47,0.38-0.7,0.87-0.7,1.46c0,0.77,0.19,1.33,0.56,1.68c0.38,0.35,1.07,0.55,2.09,0.57c0.84,0.03,1.67,0.05,2.48,0.07
		c0.81,0.02,1.64,0.04,2.48,0.07c1.38,0.03,2.56,0.19,3.53,0.49c0.98,0.29,1.77,0.69,2.39,1.19c0.61,0.5,1.07,1.08,1.35,1.72
		c0.28,0.65,0.43,1.36,0.43,2.12c0,1.03-0.2,2.08-0.61,3.14c-0.41,1.06-1.04,2.02-1.89,2.87s-1.96,1.56-3.31,2.12
		C93.92,86.72,92.3,87,90.41,87c-2.91,0-5.21-0.57-6.89-1.7C81.84,84.16,81,82.61,81,80.63c0-0.77,0.14-1.47,0.43-2.12
		c0.28-0.65,0.65-1.22,1.1-1.72c0.45-0.5,0.96-0.9,1.53-1.19c0.57-0.29,1.15-0.52,1.76-0.66v-0.09c-0.93-0.27-1.64-0.71-2.12-1.33
		c-0.48-0.62-0.72-1.36-0.72-2.21c0-0.5,0.1-0.96,0.29-1.37c0.19-0.41,0.44-0.78,0.74-1.11c0.3-0.32,0.64-0.59,1.04-0.8
		c0.39-0.21,0.77-0.34,1.13-0.4v-0.09c-1.38-0.59-2.46-1.42-3.24-2.5C82.15,63.97,81.76,62.63,81.76,61z M97.75,79.93
		c0-1.77-0.53-3.01-1.58-3.71c-1.05-0.71-2.79-1.06-5.22-1.06c-2.25,0-3.99,0.36-5.22,1.08c-1.23,0.72-1.85,2.03-1.85,3.91
		c0,1,0.17,1.86,0.52,2.56c0.34,0.71,0.81,1.28,1.4,1.72c0.59,0.44,1.28,0.77,2.09,0.97c0.81,0.21,1.68,0.31,2.61,0.31
		c0.9,0,1.79-0.12,2.66-0.35c0.87-0.24,1.64-0.59,2.32-1.06c0.68-0.47,1.22-1.07,1.64-1.79C97.54,81.79,97.75,80.93,97.75,79.93z
		 M95.32,60.78c0-1.86-0.45-3.27-1.35-4.24c-0.9-0.97-2.09-1.46-3.56-1.46c-1.62,0-2.88,0.54-3.78,1.61
		c-0.9,1.08-1.35,2.51-1.35,4.31c0,1.86,0.41,3.32,1.24,4.4c0.83,1.08,2.11,1.61,3.85,1.61c0.87,0,1.61-0.17,2.23-0.51
		c0.61-0.34,1.13-0.8,1.53-1.37c0.41-0.57,0.7-1.24,0.9-1.99C95.22,62.4,95.32,61.61,95.32,60.78z"/>
	<path class="st0" d="M104.16,51.37c-0.02-1.18-0.04-2.34-0.07-3.49c-0.03-1.15-0.07-2.25-0.11-3.29c-0.05-1.05-0.1-1.94-0.16-2.67
		c0.84,0.15,1.52,0.22,2.03,0.22c0.51,0,1.19-0.07,2.03-0.22c-0.06,0.74-0.11,1.62-0.16,2.65c-0.05,1.03-0.08,2.12-0.11,3.25
		c-0.03,1.13-0.05,2.28-0.07,3.43c-0.02,1.15-0.02,2.21-0.02,3.18v3.36h0.09c0.84-1.27,1.85-2.25,3.02-2.94
		c1.17-0.69,2.57-1.04,4.19-1.04c0.84,0,1.69,0.12,2.54,0.35c0.86,0.24,1.63,0.64,2.32,1.22c0.69,0.57,1.25,1.36,1.69,2.34
		c0.43,0.99,0.65,2.25,0.65,3.78c0,1.27-0.03,2.57-0.09,3.91c-0.06,1.34-0.09,2.76-0.09,4.27v2.87c0,0.47,0.01,0.94,0.02,1.39
		c0.01,0.46,0.04,0.89,0.07,1.3c-0.6-0.06-1.23-0.09-1.89-0.09c-0.63,0-1.25,0.03-1.85,0.09c0.06-1.53,0.13-3.11,0.2-4.73
		c0.07-1.62,0.11-3.29,0.11-5v-2.7c0-2.21-0.44-3.88-1.31-5.02c-0.87-1.13-2.07-1.7-3.6-1.7c-2.1,0-3.64,0.63-4.62,1.9
		c-0.98,1.27-1.46,3.05-1.46,5.35c0,0.83,0.01,1.78,0.02,2.87c0.01,1.09,0.04,2.19,0.07,3.29c0.03,1.11,0.07,2.17,0.11,3.21
		c0.05,1.03,0.1,1.87,0.16,2.52c-0.69-0.06-1.37-0.09-2.03-0.09c-0.66,0-1.34,0.03-2.03,0.09c0.06-0.68,0.11-1.53,0.16-2.56
		c0.05-1.03,0.08-2.12,0.11-3.27c0.03-1.15,0.05-2.31,0.07-3.49c0.02-1.18,0.02-2.27,0.02-3.27v-8
		C104.18,53.64,104.17,52.55,104.16,51.37z"/>
	<path class="st0" d="M131.23,48.32c-0.09,1.12-0.16,2.22-0.2,3.29c-0.05,1.08-0.1,2.16-0.16,3.25c0.33,0,0.95-0.01,1.85-0.02
		c0.9-0.01,1.88-0.05,2.93-0.11c-0.03,0.09-0.05,0.25-0.05,0.49v0.44v0.49c0,0.21,0.01,0.35,0.05,0.44
		c-0.39-0.03-0.8-0.05-1.22-0.07c-0.42-0.01-0.87-0.02-1.35-0.02h-2.21c-0.03,0.12-0.07,0.59-0.11,1.41
		c-0.05,0.83-0.08,1.81-0.11,2.94c-0.03,1.13-0.05,2.32-0.07,3.56c-0.02,1.24-0.02,2.34-0.02,3.32c0,0.83,0.02,1.64,0.07,2.43
		c0.05,0.8,0.19,1.51,0.43,2.14c0.24,0.63,0.6,1.14,1.08,1.53c0.48,0.38,1.17,0.57,2.07,0.57c0.24,0,0.56-0.03,0.97-0.09
		c0.41-0.06,0.76-0.13,1.06-0.22v1.06c-0.51,0.09-1.07,0.2-1.69,0.33c-0.62,0.13-1.21,0.2-1.78,0.2c-1.89,0-3.29-0.46-4.19-1.37
		c-0.9-0.91-1.35-2.25-1.35-4.02c0-0.8,0.01-1.66,0.05-2.59c0.03-0.93,0.07-1.95,0.11-3.05c0.05-1.11,0.08-2.33,0.11-3.67
		c0.03-1.34,0.05-2.84,0.05-4.49h-1.44c-0.24,0-0.5,0.01-0.77,0.02c-0.27,0.02-0.56,0.04-0.86,0.07c0.03-0.18,0.05-0.35,0.07-0.51
		c0.01-0.16,0.02-0.33,0.02-0.51c0-0.15-0.01-0.29-0.02-0.44c-0.02-0.15-0.04-0.29-0.07-0.44c1.35,0.09,2.34,0.13,2.97,0.13
		c-0.03-0.59-0.05-1.33-0.07-2.21c-0.02-0.88-0.05-1.8-0.11-2.74l3.74-1.55H131.23z"/>
	<path class="st0" d="M136.42,65.43c0-3.63,0.88-6.47,2.63-8.53c1.76-2.06,4.32-3.09,7.68-3.09c1.59,0,2.96,0.24,4.12,0.73
		c1.16,0.49,2.12,1.13,2.9,1.95c0.78,0.81,1.36,1.76,1.73,2.85c0.37,1.09,0.56,2.25,0.56,3.49c0,0.29-0.01,0.58-0.02,0.86
		c-0.02,0.28-0.04,0.57-0.07,0.86c-1.62-0.03-3.23-0.06-4.82-0.09c-1.59-0.03-3.2-0.04-4.82-0.04c-0.99,0-1.97,0.02-2.95,0.04
		c-0.98,0.03-1.96,0.06-2.95,0.09c-0.03,0.15-0.05,0.37-0.05,0.66v0.57c0,1.15,0.17,2.23,0.52,3.23c0.34,1,0.85,1.86,1.51,2.59
		c0.66,0.72,1.47,1.3,2.43,1.72c0.96,0.43,2.07,0.64,3.33,0.64c0.6,0,1.22-0.08,1.85-0.24c0.63-0.16,1.25-0.38,1.85-0.66
		c0.6-0.28,1.16-0.61,1.69-0.99c0.52-0.38,0.98-0.8,1.37-1.24l0.23,0.13l-0.27,2.17c-0.9,0.71-2.02,1.31-3.35,1.81
		c-1.34,0.5-2.72,0.75-4.17,0.75c-1.62,0-3.1-0.24-4.43-0.73c-1.34-0.49-2.49-1.19-3.47-2.12c-0.98-0.93-1.73-2.03-2.25-3.29
		C136.69,68.27,136.42,66.9,136.42,65.43z M146.83,55.21c-1.11,0-2.05,0.25-2.81,0.75c-0.77,0.5-1.4,1.13-1.89,1.88
		c-0.5,0.75-0.87,1.58-1.13,2.48c-0.26,0.9-0.41,1.75-0.47,2.54c0.93,0.03,1.9,0.06,2.9,0.09c1.01,0.03,1.99,0.04,2.95,0.04
		c0.99,0,2-0.01,3.02-0.04c1.02-0.03,2.01-0.06,2.97-0.09c0-0.8-0.07-1.64-0.2-2.52c-0.13-0.88-0.41-1.71-0.81-2.48
		c-0.41-0.77-0.97-1.4-1.69-1.9C148.94,55.46,148,55.21,146.83,55.21z"/>
	<path class="st0" d="M172.84,57.79c-0.87-1.13-2.07-1.7-3.6-1.7c-2.1,0-3.64,0.63-4.62,1.9c-0.98,1.27-1.46,3.05-1.46,5.35v3.76
		c0,1.33,0.02,2.72,0.07,4.18c0.04,1.46,0.14,2.78,0.29,3.96c-0.69-0.06-1.37-0.09-2.03-0.09c-0.66,0-1.34,0.03-2.03,0.09
		c0.15-1.18,0.25-2.5,0.29-3.96c0.04-1.46,0.07-2.85,0.07-4.18v-4.6c0-1.33-0.02-2.72-0.07-4.18c-0.05-1.46-0.14-2.82-0.29-4.09
		c0.84,0.15,1.52,0.22,2.03,0.22c0.24,0,0.5-0.02,0.79-0.07c0.28-0.04,0.62-0.1,1.01-0.15c-0.09,1.18-0.13,2.36-0.13,3.54h0.09
		c0.84-1.27,1.85-2.25,3.02-2.94c1.17-0.69,2.57-1.04,4.19-1.04c0.84,0,1.69,0.12,2.54,0.35c0.86,0.24,1.63,0.64,2.32,1.22
		c0.69,0.57,1.25,1.36,1.69,2.34c0.43,0.99,0.65,2.25,0.65,3.78c0,1.27-0.03,2.57-0.09,3.91c-0.06,1.34-0.09,2.76-0.09,4.27v2.87
		c0,0.47,0.01,0.94,0.02,1.39c0.01,0.46,0.04,0.89,0.07,1.3c-0.6-0.06-1.23-0.09-1.89-0.09c-0.63,0-1.25,0.03-1.85,0.09
		c0.06-1.53,0.13-3.11,0.2-4.73c0.07-1.62,0.11-3.29,0.11-5v-2.7C174.15,60.59,173.71,58.92,172.84,57.79z"/>
	<path class="st0" d="M73.18,48.12c0-0.62,0.22-1.15,0.68-1.59c0.45-0.44,0.99-0.66,1.62-0.66c0.63,0,1.17,0.22,1.62,0.66
		c0.45,0.44,0.68,0.97,0.68,1.59c0,0.62-0.22,1.15-0.68,1.59c-0.45,0.44-0.99,0.66-1.62,0.66c-0.63,0-1.17-0.22-1.62-0.66
		C73.4,49.27,73.18,48.74,73.18,48.12z"/>
	<path class="st1" d="M92.65,22.73c-2.84,13.14-11.52,18.9-24.88,13.95c1.15-1.01,2.17-2.04,3.06-3.09
		c7.29-1.77,12.19-5.08,14.57-9.86c0.44-0.88,0.78-1.8,1.04-2.77C88.41,21.3,90.48,21.88,92.65,22.73z"/>
	<path class="st1" d="M60.75,33.6c-7.29-1.77-12.19-5.08-14.57-9.86c-0.44-0.88-0.78-1.8-1.04-2.77c-1.97,0.33-4.05,0.92-6.22,1.76
		c2.84,13.14,11.52,18.9,24.88,13.95C62.65,35.67,61.63,34.64,60.75,33.6z"/>
	<path class="st2" d="M72.06,32.02c13.27-3.83,16.65-13.4,11.16-25.48c-4.96,1.24-8.83,3.24-11.45,5.94
		c2.39,3.26,3.62,6.66,3.6,10.06C75.36,25.8,74.25,28.97,72.06,32.02z"/>
	<path class="st1" d="M65,7.07l0.79-0.65l0.79,0.65c1.73,1.43,3.22,2.92,4.45,4.44c0.67-0.67,1.41-1.3,2.22-1.88
		C71.99,6.3,69.47,3.05,65.79,0c-3.69,3.05-6.21,6.3-7.46,9.63c0.81,0.59,1.55,1.22,2.22,1.88C61.78,9.99,63.26,8.51,65,7.07z"/>
	<path class="st2" d="M59.8,12.48c-2.62-2.69-6.49-4.69-11.45-5.94c-5.5,12.09-2.11,21.65,11.16,25.48
		c-2.19-3.05-3.3-6.22-3.32-9.48C56.18,19.14,57.41,15.74,59.8,12.48z"/>
	<path class="st3" d="M65.79,36.77c11.58-9.4,10.71-19.92,0-28.78C55.07,16.86,54.2,27.37,65.79,36.77z"/>
	<g>
		<g>
			<path class="st0" d="M180.16,54.72h0.48c0.31,0,0.53,0.13,0.53,0.41v0.01c0,0.22-0.14,0.33-0.32,0.38l0.4,0.6h-0.29l-0.37-0.57
				h-0.17v0.57h-0.26V54.72z M180.63,55.37c0.18,0,0.27-0.07,0.27-0.22v-0.01c0-0.16-0.1-0.22-0.27-0.22h-0.21v0.45H180.63z"/>
		</g>
		<g>
			<path class="st0" d="M180.62,56.8c-0.76,0-1.38-0.61-1.38-1.35c0-0.75,0.62-1.35,1.38-1.35c0.76,0,1.38,0.61,1.38,1.35
				C182,56.19,181.38,56.8,180.62,56.8z M180.62,54.27c-0.66,0-1.19,0.52-1.19,1.17c0,0.64,0.53,1.17,1.19,1.17
				c0.66,0,1.19-0.52,1.19-1.17C181.81,54.8,181.27,54.27,180.62,54.27z"/>
		</g>
	</g>
</g>
</svg>
